<?xml version="1.0" encoding="UTF-8" standalone="no"?>
<!-- Created with Inkscape (http://www.inkscape.org/) -->

<svg
   xmlns:dc="http://purl.org/dc/elements/1.1/"
   xmlns:cc="http://creativecommons.org/ns#"
   xmlns:rdf="http://www.w3.org/1999/02/22-rdf-syntax-ns#"
   xmlns:svg="http://www.w3.org/2000/svg"
   xmlns="http://www.w3.org/2000/svg"
   xmlns:sodipodi="http://sodipodi.sourceforge.net/DTD/sodipodi-0.dtd"
   xmlns:inkscape="http://www.inkscape.org/namespaces/inkscape"
   width="210mm"
   height="297mm"
   viewBox="0 0 744.09448819 1052.3622047"
   id="svg2"
   version="1.1"
   inkscape:version="0.91 r13725"
   sodipodi:docname="boton2.svg">
  <defs
     id="defs4" />
  <sodipodi:namedview
     id="base"
     pagecolor="#ffffff"
     bordercolor="#666666"
     borderopacity="1.0"
     inkscape:pageopacity="0.0"
     inkscape:pageshadow="2"
     inkscape:zoom="0.35"
     inkscape:cx="375"
     inkscape:cy="517.14286"
     inkscape:document-units="px"
     inkscape:current-layer="layer1"
     showgrid="false"
     inkscape:window-width="1024"
     inkscape:window-height="716"
     inkscape:window-x="-8"
     inkscape:window-y="-8"
     inkscape:window-maximized="1" />
  <metadata
     id="metadata7">
    <rdf:RDF>
      <cc:Work
         rdf:about="">
        <dc:format>image/svg+xml</dc:format>
        <dc:type
           rdf:resource="http://purl.org/dc/dcmitype/StillImage" />
        <dc:title></dc:title>
      </cc:Work>
    </rdf:RDF>
  </metadata>
  <g
     inkscape:label="Capa 1"
     inkscape:groupmode="layer"
     id="layer1">
    <path
       sodipodi:type="star"
       style="fill:#ff0000"
       id="path3340"
       sodipodi:sides="5"
       sodipodi:cx="357.14285"
       sodipodi:cy="363.79077"
       sodipodi:r1="292.61664"
       sodipodi:r2="146.3083"
       sodipodi:arg1="0.62592479"
       sodipodi:arg2="1.2542433"
       inkscape:flatsided="false"
       inkscape:rounded="0"
       inkscape:randomized="0"
       d="M 594.28572,535.21935 402.68756,502.82961 267.38576,642.30138 238.98315,450.07173 64.527053,364.49122 238.57143,278.07649 266.05343,85.713059 402.02139,224.53548 593.46229,191.22885 503.45074,363.44054 Z"
       inkscape:transform-center-x="50.950214"
       inkscape:transform-center-y="0.28856573"
       transform="matrix(1.8369396,0,0,1.3331548,-257.38125,-128.27149)" />
    <g
       style="font-style:normal;font-variant:normal;font-weight:bold;font-stretch:normal;font-size:40px;line-height:125%;font-family:sans-serif;-inkscape-font-specification:'sans-serif Bold';letter-spacing:0px;word-spacing:0px;fill:#ffffff;fill-opacity:1;stroke:none;stroke-width:1px;stroke-linecap:butt;stroke-linejoin:miter;stroke-opacity:1"
       id="flowRoot3342"
       transform="matrix(2.2987209,0,0,2.8738011,-243.80441,-472.01979)">
      <path
         d="m 213.42969,262.39324 q 0,1.95313 -0.6836,3.82813 -0.68359,1.85547 -1.95312,3.125 -1.73828,1.71875 -3.88672,2.59765 -2.12891,0.87891 -5.3125,0.87891 l -4.66797,0 0,9.47266 -7.5,0 0,-29.08203 12.34375,0 q 2.77344,0 4.66797,0.48828 1.91406,0.46875 3.37891,1.42578 1.75781,1.15234 2.67578,2.94922 0.9375,1.79687 0.9375,4.3164 z m -7.75391,0.17578 q 0,-1.23046 -0.66406,-2.10937 -0.66406,-0.89844 -1.54297,-1.25 -1.17188,-0.46875 -2.28516,-0.50781 -1.11328,-0.0586 -2.96875,-0.0586 l -1.28906,0 0,8.71094 2.14844,0 q 1.91406,0 3.14453,-0.23437 1.25,-0.23438 2.08984,-0.9375 0.72266,-0.625 1.03516,-1.48438 0.33203,-0.87891 0.33203,-2.12891 z"
         id="path3353"
         inkscape:connector-curvature="0" />
      <path
         d="m 231.61328,276.57293 0,-4.57031 q -1.42578,0.11719 -3.08594,0.33203 -1.66015,0.19531 -2.51953,0.46875 -1.05469,0.33203 -1.62109,0.97656 -0.54688,0.625 -0.54688,1.66016 0,0.68359 0.11719,1.11328 0.11719,0.42969 0.58594,0.82031 0.44922,0.39063 1.07422,0.58594 0.625,0.17578 1.95312,0.17578 1.05469,0 2.12891,-0.42969 1.09375,-0.42968 1.91406,-1.13281 z m 0,3.39844 q -0.56641,0.42969 -1.40625,1.03515 -0.83984,0.60547 -1.58203,0.95704 -1.03516,0.46875 -2.14844,0.68359 -1.11328,0.23437 -2.4414,0.23437 -3.125,0 -5.23438,-1.93359 -2.10937,-1.93359 -2.10937,-4.94141 0,-2.40234 1.07421,-3.92578 1.07422,-1.52343 3.04688,-2.40234 1.95312,-0.87891 4.84375,-1.25 2.89062,-0.37109 5.99609,-0.54688 l 0,-0.11718 q 0,-1.81641 -1.48437,-2.5 -1.48438,-0.70313 -4.375,-0.70313 -1.73828,0 -3.71094,0.625 -1.97266,0.60547 -2.83203,0.9375 l -0.64453,0 0,-5.29297 q 1.11328,-0.29297 3.61328,-0.68359 2.51953,-0.41016 5.03906,-0.41016 5.9961,0 8.65235,1.85547 2.67578,1.83594 2.67578,5.78125 l 0,14.92188 -6.97266,0 0,-2.32422 z"
         id="path3355"
         inkscape:connector-curvature="0" />
      <path
         d="m 267.08203,282.29559 -7.07031,0 0,-10.87891 q 0,-1.32812 -0.13672,-2.63672 -0.13672,-1.32812 -0.46875,-1.95312 -0.39063,-0.72266 -1.15234,-1.05469 -0.74219,-0.33203 -2.08985,-0.33203 -0.95703,0 -1.95312,0.3125 -0.97657,0.3125 -2.12891,0.99609 l 0,15.54688 -7.03125,0 0,-21.9336 7.03125,0 0,2.42188 q 1.875,-1.46485 3.59375,-2.2461 1.73828,-0.78125 3.84766,-0.78125 3.55468,0 5.54687,2.07032 2.01172,2.07031 2.01172,6.1914 l 0,14.27735 z"
         id="path3357"
         inkscape:connector-curvature="0" />
      <path
         d="m 287.58984,282.10027 q -1.13281,0.29297 -2.40234,0.44922 -1.26953,0.17578 -3.10547,0.17578 -4.10156,0 -6.11328,-1.66015 -1.99219,-1.66016 -1.99219,-5.6836 l 0,-10.2539 -2.89062,0 0,-4.76563 2.89062,0 0,-6.26953 7.03125,0 0,6.26953 6.58203,0 0,4.76563 -6.58203,0 0,7.77344 q 0,1.15234 0.0195,2.01171 0.0195,0.85938 0.3125,1.54297 0.27344,0.6836 0.95703,1.09375 0.70313,0.39063 2.03125,0.39063 0.54688,0 1.42579,-0.23438 0.89843,-0.23437 1.25,-0.42968 l 0.58593,0 0,4.82421 z"
         id="path3359"
         inkscape:connector-curvature="0" />
      <path
         d="m 305.05078,276.57293 0,-4.57031 q -1.42578,0.11719 -3.08594,0.33203 -1.66015,0.19531 -2.51953,0.46875 -1.05469,0.33203 -1.62109,0.97656 -0.54688,0.625 -0.54688,1.66016 0,0.68359 0.11719,1.11328 0.11719,0.42969 0.58594,0.82031 0.44922,0.39063 1.07422,0.58594 0.625,0.17578 1.95312,0.17578 1.05469,0 2.12891,-0.42969 1.09375,-0.42968 1.91406,-1.13281 z m 0,3.39844 q -0.56641,0.42969 -1.40625,1.03515 -0.83984,0.60547 -1.58203,0.95704 -1.03516,0.46875 -2.14844,0.68359 -1.11328,0.23437 -2.4414,0.23437 -3.125,0 -5.23438,-1.93359 -2.10937,-1.93359 -2.10937,-4.94141 0,-2.40234 1.07421,-3.92578 1.07422,-1.52343 3.04688,-2.40234 1.95312,-0.87891 4.84375,-1.25 2.89062,-0.37109 5.99609,-0.54688 l 0,-0.11718 q 0,-1.81641 -1.48437,-2.5 -1.48438,-0.70313 -4.375,-0.70313 -1.73828,0 -3.71094,0.625 -1.97266,0.60547 -2.83203,0.9375 l -0.64453,0 0,-5.29297 q 1.11328,-0.29297 3.61328,-0.68359 2.51953,-0.41016 5.03906,-0.41016 5.9961,0 8.65235,1.85547 2.67578,1.83594 2.67578,5.78125 l 0,14.92188 -6.97266,0 0,-2.32422 z"
         id="path3361"
         inkscape:connector-curvature="0" />
      <path
         d="m 325.51953,282.29559 -7.03125,0 0,-30.39063 7.03125,0 0,30.39063 z"
         id="path3363"
         inkscape:connector-curvature="0" />
      <path
         d="m 339.19141,282.29559 -7.03125,0 0,-30.39063 7.03125,0 0,30.39063 z"
         id="path3365"
         inkscape:connector-curvature="0" />
      <path
         d="m 359.11328,276.57293 0,-4.57031 q -1.42578,0.11719 -3.08594,0.33203 -1.66015,0.19531 -2.51953,0.46875 -1.05469,0.33203 -1.62109,0.97656 -0.54688,0.625 -0.54688,1.66016 0,0.68359 0.11719,1.11328 0.11719,0.42969 0.58594,0.82031 0.44922,0.39063 1.07422,0.58594 0.625,0.17578 1.95312,0.17578 1.05469,0 2.12891,-0.42969 1.09375,-0.42968 1.91406,-1.13281 z m 0,3.39844 q -0.56641,0.42969 -1.40625,1.03515 -0.83984,0.60547 -1.58203,0.95704 -1.03516,0.46875 -2.14844,0.68359 -1.11328,0.23437 -2.4414,0.23437 -3.125,0 -5.23438,-1.93359 -2.10937,-1.93359 -2.10937,-4.94141 0,-2.40234 1.07421,-3.92578 1.07422,-1.52343 3.04688,-2.40234 1.95312,-0.87891 4.84375,-1.25 2.89062,-0.37109 5.99609,-0.54688 l 0,-0.11718 q 0,-1.81641 -1.48437,-2.5 -1.48438,-0.70313 -4.375,-0.70313 -1.73828,0 -3.71094,0.625 -1.97266,0.60547 -2.83203,0.9375 l -0.64453,0 0,-5.29297 q 1.11328,-0.29297 3.61328,-0.68359 2.51953,-0.41016 5.03906,-0.41016 5.9961,0 8.65235,1.85547 2.67578,1.83594 2.67578,5.78125 l 0,14.92188 -6.97266,0 0,-2.32422 z"
         id="path3367"
         inkscape:connector-curvature="0" />
      <path
         d="m 202.57031,332.86199 q -3.24219,0 -5.99609,-0.95703 -2.73438,-0.95703 -4.70703,-2.85156 -1.97266,-1.89453 -3.06641,-4.72656 -1.07422,-2.83203 -1.07422,-6.54297 0,-3.45703 1.03516,-6.26953 1.03515,-2.8125 3.00781,-4.82422 1.89453,-1.9336 4.6875,-2.98828 2.8125,-1.05469 6.13281,-1.05469 1.83594,0 3.30078,0.21484 1.48438,0.19532 2.73438,0.52735 1.30859,0.37109 2.36328,0.83984 1.07422,0.44922 1.875,0.83984 l 0,7.05079 -0.85937,0 q -0.54688,-0.46875 -1.38672,-1.11329 -0.82032,-0.64453 -1.875,-1.26953 -1.07422,-0.625 -2.32422,-1.05468 -1.25,-0.42969 -2.67578,-0.42969 -1.58203,0 -3.00782,0.50781 -1.42578,0.48828 -2.63671,1.64063 -1.15235,1.11328 -1.875,2.94921 -0.70313,1.83594 -0.70313,4.45313 0,2.73437 0.76172,4.57031 0.78125,1.83594 1.95312,2.89063 1.19141,1.07422 2.65625,1.54297 1.46485,0.44921 2.89063,0.44921 1.36719,0 2.69531,-0.41015 1.34766,-0.41016 2.48047,-1.11328 0.95703,-0.56641 1.77734,-1.21094 0.82032,-0.64453 1.34766,-1.11328 l 0.78125,0 0,6.95312 q -1.09375,0.48828 -2.08984,0.91797 -0.9961,0.42969 -2.08985,0.74219 -1.42578,0.41016 -2.67578,0.625 -1.25,0.21484 -3.4375,0.21484 z"
         id="path3369"
         inkscape:connector-curvature="0" />
      <path
         d="m 240.44141,321.33856 q 0,5.41015 -3.16407,8.53515 -3.14453,3.10547 -8.84765,3.10547 -5.70313,0 -8.86719,-3.10547 -3.14453,-3.125 -3.14453,-8.53515 0,-5.44922 3.16406,-8.55469 3.18359,-3.10547 8.84766,-3.10547 5.74218,0 8.86718,3.125 3.14454,3.125 3.14454,8.53516 z m -8.65235,5.33203 q 0.6836,-0.83985 1.01563,-2.01172 0.35156,-1.19141 0.35156,-3.28125 0,-1.9336 -0.35156,-3.24219 -0.35157,-1.30859 -0.97657,-2.08984 -0.625,-0.80078 -1.5039,-1.13282 -0.87891,-0.33203 -1.89453,-0.33203 -1.01563,0 -1.81641,0.27344 -0.78125,0.27344 -1.50391,1.09375 -0.64453,0.76172 -1.03515,2.08984 -0.3711,1.32813 -0.3711,3.33985 0,1.79687 0.33204,3.125 0.33203,1.30859 0.97656,2.10937 0.625,0.76172 1.48437,1.11328 0.87891,0.35157 1.99219,0.35157 0.95703,0 1.81641,-0.3125 0.8789,-0.33203 1.48437,-1.09375 z"
         id="path3371"
         inkscape:connector-curvature="0" />
      <path
         d="m 266.96484,316.74871 0,15.54688 -7.07031,0 0,-10.95703 q 0,-1.60157 -0.0781,-2.71485 -0.0781,-1.13281 -0.42969,-1.83594 -0.35156,-0.70312 -1.07422,-1.01562 -0.70313,-0.33203 -1.99219,-0.33203 -1.03515,0 -2.01172,0.42969 -0.97656,0.41015 -1.75781,0.8789 l 0,15.54688 -7.03125,0 0,-21.9336 7.03125,0 0,2.42188 q 1.81641,-1.42578 3.47656,-2.22656 1.66016,-0.80079 3.67188,-0.80079 2.16797,0 3.82812,0.97657 1.66016,0.95703 2.59766,2.83203 2.10937,-1.77735 4.10156,-2.79297 1.99219,-1.01563 3.90625,-1.01563 3.55469,0 5.39063,2.12891 1.85547,2.12891 1.85547,6.13281 l 0,14.27735 -7.07032,0 0,-10.95703 q 0,-1.6211 -0.0781,-2.73438 -0.0586,-1.11328 -0.41016,-1.81641 -0.33203,-0.70312 -1.05469,-1.01562 -0.72265,-0.33203 -2.03125,-0.33203 -0.8789,0 -1.71875,0.3125 -0.83984,0.29297 -2.05078,0.99609 z"
         id="path3373"
         inkscape:connector-curvature="0" />
      <path
         d="m 310.75391,321.02606 q 0,2.71484 -0.83985,4.9414 -0.82031,2.22656 -2.16797,3.67188 -1.40625,1.52343 -3.18359,2.30468 -1.77734,0.78125 -3.80859,0.78125 -1.875,0 -3.1836,-0.41015 -1.30859,-0.39063 -2.67578,-1.11328 l 0,9.14062 -7.03125,0 0,-29.98047 7.03125,0 0,2.28516 q 1.62109,-1.28906 3.30078,-2.08984 1.69922,-0.80079 3.90625,-0.80079 4.10156,0 6.36719,3.00782 2.28516,3.00781 2.28516,8.26172 z m -7.2461,0.13671 q 0,-3.20312 -1.09375,-4.64843 -1.09375,-1.44532 -3.45703,-1.44532 -0.99609,0 -2.05078,0.3125 -1.05469,0.29297 -2.01172,0.85938 l 0,11.03516 q 0.70313,0.27343 1.50391,0.35156 0.80078,0.0781 1.58203,0.0781 2.79297,0 4.16015,-1.62109 1.36719,-1.64063 1.36719,-4.92188 z"
         id="path3375"
         inkscape:connector-curvature="0" />
      <path
         d="m 322.86328,332.29559 -7.03125,0 0,-30.39063 7.03125,0 0,30.39063 z"
         id="path3377"
         inkscape:connector-curvature="0" />
      <path
         d="m 351.10547,322.62762 -16.09375,0 q 0.15625,2.57812 1.95312,3.94531 1.81641,1.36719 5.33203,1.36719 2.22657,0 4.31641,-0.80078 2.08984,-0.80078 3.30078,-1.71875 l 0.78125,0 0,5.64453 q -2.38281,0.95703 -4.49219,1.38672 -2.10937,0.42968 -4.66796,0.42968 -6.60157,0 -10.11719,-2.96875 -3.51563,-2.96875 -3.51563,-8.45703 0,-5.42968 3.32032,-8.59375 3.33984,-3.18359 9.14062,-3.18359 5.35156,0 8.04688,2.71484 2.69531,2.69532 2.69531,7.77344 l 0,2.46094 z m -6.99219,-4.1211 q -0.0586,-2.20703 -1.09375,-3.32031 -1.03516,-1.11328 -3.22266,-1.11328 -2.03125,0 -3.33984,1.05469 -1.30859,1.05469 -1.46484,3.3789 l 9.12109,0 z"
         id="path3379"
         inkscape:connector-curvature="0" />
      <path
         d="m 370.08984,332.10027 q -1.13281,0.29297 -2.40234,0.44922 -1.26953,0.17578 -3.10547,0.17578 -4.10156,0 -6.11328,-1.66015 -1.99219,-1.66016 -1.99219,-5.6836 l 0,-10.2539 -2.89062,0 0,-4.76563 2.89062,0 0,-6.26953 7.03125,0 0,6.26953 6.58203,0 0,4.76563 -6.58203,0 0,7.77344 q 0,1.15234 0.0195,2.01171 0.0195,0.85938 0.3125,1.54297 0.27344,0.6836 0.95703,1.09375 0.70313,0.39063 2.03125,0.39063 0.54688,0 1.42579,-0.23438 0.89843,-0.23437 1.25,-0.42968 l 0.58593,0 0,4.82421 z"
         id="path3381"
         inkscape:connector-curvature="0" />
      <path
         d="m 387.55078,326.57293 0,-4.57031 q -1.42578,0.11719 -3.08594,0.33203 -1.66015,0.19531 -2.51953,0.46875 -1.05469,0.33203 -1.62109,0.97656 -0.54688,0.625 -0.54688,1.66016 0,0.68359 0.11719,1.11328 0.11719,0.42969 0.58594,0.82031 0.44922,0.39063 1.07422,0.58594 0.625,0.17578 1.95312,0.17578 1.05469,0 2.12891,-0.42969 1.09375,-0.42968 1.91406,-1.13281 z m 0,3.39844 q -0.56641,0.42969 -1.40625,1.03515 -0.83984,0.60547 -1.58203,0.95704 -1.03516,0.46875 -2.14844,0.68359 -1.11328,0.23437 -2.4414,0.23437 -3.125,0 -5.23438,-1.93359 -2.10937,-1.93359 -2.10937,-4.94141 0,-2.40234 1.07421,-3.92578 1.07422,-1.52343 3.04688,-2.40234 1.95312,-0.87891 4.84375,-1.25 2.89062,-0.37109 5.99609,-0.54688 l 0,-0.11718 q 0,-1.81641 -1.48437,-2.5 -1.48438,-0.70313 -4.375,-0.70313 -1.73828,0 -3.71094,0.625 -1.97266,0.60547 -2.83203,0.9375 l -0.64453,0 0,-5.29297 q 1.11328,-0.29297 3.61328,-0.68359 2.51953,-0.41016 5.03906,-0.41016 5.9961,0 8.65235,1.85547 2.67578,1.83594 2.67578,5.78125 l 0,14.92188 -6.97266,0 0,-2.32422 z"
         id="path3383"
         inkscape:connector-curvature="0" />
    </g>
  </g>
</svg>
